<?xml version="1.0" encoding="UTF-8" standalone="no"?>
<svg
   id="svg"
   version="1.1"
   width="400"
   height="400"
   viewBox="0, 0, 400,400"
   sodipodi:docname="logo_kantiles_seul.svg"
   inkscape:version="1.2.2 (732a01da63, 2022-12-09)"
   inkscape:export-filename="logo_kantiles_seul.png"
   inkscape:export-xdpi="300.43"
   inkscape:export-ydpi="300.43"
   xmlns:inkscape="http://www.inkscape.org/namespaces/inkscape"
   xmlns:sodipodi="http://sodipodi.sourceforge.net/DTD/sodipodi-0.dtd"
   xmlns="http://www.w3.org/2000/svg"
   xmlns:svg="http://www.w3.org/2000/svg">
  <defs
     id="defs11" />
  <sodipodi:namedview
     id="namedview9"
     pagecolor="#ffffff"
     bordercolor="#666666"
     borderopacity="1.0"
     inkscape:showpageshadow="2"
     inkscape:pageopacity="0.0"
     inkscape:pagecheckerboard="0"
     inkscape:deskcolor="#d1d1d1"
     showgrid="false"
     inkscape:zoom="2.0725"
     inkscape:cx="178.28709"
     inkscape:cy="212.30398"
     inkscape:window-width="1920"
     inkscape:window-height="1009"
     inkscape:window-x="1912"
     inkscape:window-y="-8"
     inkscape:window-maximized="1"
     inkscape:current-layer="svg" />
  <path
     id="path2"
     d="m 163.11582,70.968204 c -4.91305,10.701888 -6.68856,15.734931 -5.93383,16.814447 1.62515,2.314462 8.08525,5.82711 17.54407,9.543238 5.40754,2.122308 14.25619,5.951481 19.66373,8.511801 24.75601,11.71923 27.47422,11.67968 32.46245,-0.46911 5.67644,-13.83305 5.84994,-13.522205 -11.64208,-20.889472 -6.67989,-2.811827 -17.09006,-7.245767 -23.13376,-9.851298 -9.71906,-4.190888 -23.40271,-8.995008 -25.68137,-9.02045 -0.4482,-0.005 -1.92302,2.407715 -3.27921,5.360844 M 301.9271,68.212887 c -7.58789,5.165851 -10.25695,11.984898 -10.05452,25.66817 0.21399,14.355853 1.0728,11.854893 -19.96733,58.115813 -11.35082,25.01663 -20.71907,46.64102 -31.6441,69.59482 -8.19226,17.16206 -7.85103,17.82616 14.27641,27.69156 43.85005,19.54713 45.71523,19.65735 50.84803,3.01249 2.95244,-9.57438 3.25318,-9.23524 -14.74488,-16.76076 -22.64218,-9.46415 -22.97184,-11.32926 -7.26113,-41.07246 10.6427,-24.74043 23.10378,-48.68731 32.58681,-74.48092 2.70087,-7.56226 3.75926,-8.82829 8.16912,-9.77498 13.16312,-2.82596 19.51622,-23.458268 10.99431,-35.708798 -5.78632,-8.316787 -24.9006,-11.936848 -33.20272,-6.284934 m 21.00256,5.940171 c 9.67569,4.886064 10.26271,22.37592 0.9109,27.100931 -7.13679,3.60873 -19.1432,-0.16393 -22.49471,-7.067725 -5.8615,-12.072499 9.36629,-26.207918 21.58381,-20.033206 M 95.226879,134.81223 c -3.449605,6.80292 -6.063675,12.14616 -6.563853,19.57218 l 10.878312,6.0112 c 5.407502,2.36816 12.503782,5.17432 15.768552,6.23406 12.82479,4.16264 12.16545,9.77498 -5.32656,45.35378 -3.36018,6.83883 -22.925543,51.88741 -25.993668,59.85377 -4.138075,10.74429 -7.316062,16.21252 -9.881015,17.00942 -12.121465,9.41801 -17.610022,25.42436 -8.755504,37.44563 5.730226,5.59431 4.134364,4.37498 10.071229,7.09713 20.71002,5.95458 38.416518,-12.67725 31.033968,-31.9192 l -2.53028,-6.59296 2.59965,-6.97163 c 2.12543,-5.70562 7.20619,-17.13942 16.15896,-36.35877 4.69326,-10.07172 12.20305,-27.05289 16.74594,-37.86781 3.00739,-7.14967 7.20328,-16.56011 9.3316,-20.9121 3.54813,-7.26553 10.74274,-24.84014 12.57318,-30.71531 2.23242,-7.17227 -61.19171,-33.3039 -66.110511,-27.23939 m 79.811501,148.10273 c -2.98426,3.73312 -7.64859,15.46083 -7.73536,19.44543 l -0.0954,4.46783 c 20.74021,8.73074 36.14816,15.01858 55.80154,23.28024 7.41146,3.12266 8.04763,2.744 13.64022,-8.14723 6.91122,-13.4572 7.79718,-13.3382 -31.61989,-29.97459 -28.47159,-11.81634 -22.53443,-12.08312 -29.99111,-9.07168 m -81.390372,16.18991 c 7.252442,5.96277 6.717492,15.41278 -1.356221,23.93868 -5.277372,5.57563 -18.015406,2.27771 -21.679224,-5.60952 -6.731919,-14.49435 10.765884,-28.41782 23.035445,-18.32916"
     stroke="none"
     fill="#6ea9be"
     fill-rule="evenodd"
     sodipodi:nodetypes="ccccccccccccccscccscccccccccccscccccccccccccccccccccc"
     style="stroke-width:2.85865;fill:#0770da;fill-opacity:1" />
  <path
     id="path3"
     d="m 79.82826,60.512881 c -17.457326,4.026991 -23.394038,28.915198 -10.115236,42.406299 5.988734,6.08712 11.801099,7.77703 23.168462,6.73709 8.542144,-0.78278 18.015434,1.27734 25.854874,5.62365 22.41254,10.59135 46.14307,19.74621 69.67889,30.31405 51.22685,23.08523 52.50499,23.33675 58.83497,11.56382 11.79821,-21.94639 22.11012,-46.1281 22.12744,-51.89023 0.0291,-9.921947 -21.40162,-15.053885 -27.18796,-6.511005 -2.30471,3.405275 -13.29035,27.538955 -13.29035,29.200605 0,1.94708 -9.45013,-1.03147 -25.38061,-7.99463 -15.88713,-6.94618 -37.08922,-16.1475 -66.57611,-28.8954 C 115.25181,81.687771 114.39588,81.162139 111.92058,75.693927 105.7294,62.016295 95.102333,56.988902 79.82826,60.512881 M 97.621034,74.543765 C 107.83746,84.527851 97.025316,102.0064 83.145061,97.942678 72.642329,94.868037 71.355518,78.810949 81.126632,72.749259 84.561991,70.618493 94.737963,71.726274 97.621034,74.543765 M 310.4054,161.5804 c -1.00631,1.50057 -5.47981,10.78387 -9.94462,20.6295 -4.46193,9.84563 -9.31714,20.4458 -10.78613,23.55434 -1.46899,3.10856 -3.61176,8.13877 -4.75977,11.17949 l -2.08784,5.52476 2.99586,2.52073 c 3.99056,3.35162 21.53751,8.90176 23.39399,7.3984 1.47479,-1.19823 2.75582,-3.8405 12.90577,-26.62338 3.60019,-8.08224 8.22694,-18.26416 10.28295,-22.62742 6.92567,-14.695 6.61626,-15.78299 -5.97141,-20.90361 -10.17884,-4.14003 -13.59685,-4.27849 -16.0288,-0.65281 m -221.202187,8.62199 c -1.445869,0.56804 -2.943786,1.93297 -3.331277,3.03509 -0.387478,1.10496 -1.905638,4.80413 -3.374628,8.22355 -1.469004,3.41939 -4.302889,10.03213 -6.298172,14.69497 -4.372276,10.21019 -5.413301,12.56421 -10.910466,24.61692 -5.112558,11.21054 -5.002659,12.27313 1.680101,16.26902 17.798533,10.63974 20.033834,9.20414 33.717469,-21.68073 17.06984,-38.52064 17.03224,-37.80566 2.18324,-42.99413 -10.5837,-3.69635 -10.002477,-3.6031 -13.666267,-2.16469 m 61.076047,77.10343 c -18.04435,37.10764 -22.31833,50.22007 -17.67419,54.25272 1.55283,1.35079 16.05481,6.50535 18.29591,6.50535 2.53315,0 9.77401,-11.53273 15.04849,-23.97541 6.21141,-14.64978 3.96168,-14.59325 35.18938,-0.89583 33.32995,14.61865 46.77647,20.3497 47.75097,20.3497 1.89407,0 32.77477,13.85851 34.83078,15.63038 1.20584,1.03995 3.152,3.98743 4.32602,6.55056 12.5761,27.45699 56.07624,13.70305 49.62484,-15.69255 -3.20406,-14.59605 -11.43098,-19.68278 -30.03344,-18.56651 -10.63576,0.63866 -27.69691,-3.86874 -35.36285,-9.34546 -26.40179,-11.35613 -50.46746,-21.96518 -74.02804,-32.04068 -43.10689,-18.43091 -40.42915,-18.27548 -47.96787,-2.77227 m 167.07495,56.20263 c 10.5114,2.37944 11.74039,18.16526 1.80444,23.18698 -10.45646,5.28453 -20.85799,-0.32781 -20.85799,-11.25295 0,-10.20173 7.0934,-14.64413 19.05355,-11.93403"
     stroke="none"
     fill="#f1b430"
     fill-rule="evenodd"
     sodipodi:nodetypes="ccccccccsccccccccccsccccccccccsccccccccsccscccccccccsc"
     style="stroke-width:2.85865;fill:#fe7920;fill-opacity:1"
     inkscape:export-filename=".\path3.png"
     inkscape:export-xdpi="300.43"
     inkscape:export-ydpi="300.43" />
</svg>
